M48
;DRILL file {KiCad 4.0.4-stable} date 10/20/16 13:28:25
;FORMAT={-:-/ absolute / inch / decimal}
FMAT,2
INCH,TZ
T1C0.016
T2C0.031
T3C0.032
T4C0.035
T5C0.039
T6C0.040
T7C0.047
T8C0.120
%
G90
G05
M72
T1
X6.6Y-2.85
X6.6Y-3.1
X7.025Y-3.6
X7.75Y-3.375
X8.125Y-2.6
X8.325Y-3.85
T2
X6.225Y-3.725
X6.225Y-3.8234
X6.225Y-4.025
X6.225Y-4.1234
X6.225Y-4.3266
X6.225Y-4.425
X6.425Y-3.725
X6.425Y-3.825
X6.425Y-3.925
X6.425Y-4.025
X6.425Y-4.125
X6.425Y-4.225
X6.425Y-4.325
X6.425Y-4.425
X6.725Y-3.5
X6.725Y-3.725
X6.725Y-3.825
X6.725Y-3.925
X6.725Y-4.025
X6.725Y-4.125
X6.725Y-4.225
X6.725Y-4.325
X6.725Y-4.425
X6.8234Y-3.5
X7.125Y-2.875
X7.125Y-2.975
X7.125Y-3.075
X7.125Y-3.175
X7.125Y-3.275
X7.125Y-3.375
X7.125Y-3.475
X7.125Y-3.575
X7.125Y-3.675
X7.425Y-2.875
X7.425Y-2.975
X7.425Y-3.075
X7.425Y-3.175
X7.425Y-3.275
X7.425Y-3.375
X7.425Y-3.475
X7.425Y-3.575
X7.425Y-3.675
X7.65Y-2.325
X7.65Y-2.625
X7.75Y-2.325
X7.75Y-2.625
X7.85Y-2.325
X7.85Y-2.625
X7.95Y-2.325
X7.95Y-2.625
X8.225Y-2.95
X8.225Y-3.05
X8.225Y-3.15
X8.225Y-3.275
X8.225Y-3.4719
X8.375Y-2.725
X8.45Y-2.325
X8.45Y-2.425
X8.45Y-2.525
X8.475Y-2.725
X8.5Y-2.95
X8.5Y-3.0484
X8.575Y-2.725
X8.725Y-4.175
X8.725Y-4.2734
X8.875Y-3.9
X8.9734Y-3.9
X9.05Y-4.175
X9.05Y-4.275
X9.05Y-4.375
T3
X7.625Y-3.0502
X7.625Y-3.1998
T4
X7.7781Y-3.
X7.7781Y-3.2
X7.975Y-3.
X7.975Y-3.2
X8.725Y-3.125
X8.9219Y-3.125
T5
X6.725Y-3.325
X6.875Y-2.875
X6.875Y-3.175
X6.925Y-4.325
X7.Y-3.7
X7.Y-4.
X7.025Y-3.325
X7.125Y-4.1
X7.175Y-2.6
X7.225Y-4.1
X7.225Y-4.325
X7.4Y-4.325
X7.45Y-4.1
X7.475Y-2.6
X7.55Y-4.1
X7.7Y-4.325
X7.775Y-3.575
X7.775Y-3.7
X7.775Y-4.1
X7.8Y-2.75
X7.875Y-4.1
X7.875Y-4.325
X8.075Y-3.575
X8.075Y-3.7
X8.1Y-2.75
X8.175Y-4.325
X8.425Y-3.2
X8.425Y-3.5
X8.425Y-3.65
X8.425Y-3.8
X8.575Y-3.2
X8.575Y-3.5
X8.675Y-2.525
X8.725Y-3.65
X8.725Y-3.8
X8.85Y-3.65
X8.975Y-2.525
X8.975Y-2.675
X9.15Y-3.65
X9.275Y-2.675
T6
X6.325Y-2.685
X6.325Y-2.795
X6.325Y-2.9
X6.325Y-3.01
X6.425Y-2.63
X6.425Y-2.74
X6.425Y-2.85
X6.425Y-2.955
X6.425Y-3.065
X8.675Y-2.35
X8.775Y-2.35
X8.875Y-2.35
X8.975Y-2.35
X9.075Y-2.35
T7
X9.3Y-2.8154
X9.3Y-3.4846
T8
X6.325Y-2.345
X6.325Y-3.345
T5
X9.3059Y-4.2644G85X9.3059Y-4.1856
G05
X9.4634Y-4.04G85X9.3847Y-4.04
G05
X9.5421Y-4.2644G85X9.5421Y-4.1856
G05
T0
M30
